<?xml version="1.0" encoding="UTF-8"?>
<!DOCTYPE svg PUBLIC "-//W3C//DTD SVG 1.1//EN" "http://www.w3.org/Graphics/SVG/1.1/DTD/svg11.dtd">
<!-- Creator: CorelDRAW 2020 (64-Bit) -->
<svg xmlns="http://www.w3.org/2000/svg" xml:space="preserve" width="260mm" height="77mm" version="1.1" style="shape-rendering:geometricPrecision; text-rendering:geometricPrecision; image-rendering:optimizeQuality; fill-rule:evenodd; clip-rule:evenodd"
viewBox="0 0 18898.53 5596.87"
 xmlns:xlink="http://www.w3.org/1999/xlink"
 xmlns:xodm="http://www.corel.com/coreldraw/odm/2003">
 <defs>
  <style type="text/css">
   <![CDATA[
    .fil5 {fill:none}
    .fil4 {fill:black;fill-rule:nonzero}
    .fil2 {fill:#136743;fill-rule:nonzero}
    .fil3 {fill:white;fill-rule:nonzero}
    .fil1 {fill:url(#id1)}
    .fil0 {fill:url(#id2)}
   ]]>
  </style>
   <clipPath id="id0">
    <path d="M-0 0l18898.53 0 0 5596.87 -18898.53 0 0 -5596.87z"/>
   </clipPath>
  <linearGradient id="id1" gradientUnits="userSpaceOnUse" x1="2961.26" y1="5515.22" x2="6580.95" y2="56.72">
   <stop offset="0" style="stop-opacity:1; stop-color:#9FD72C"/>
   <stop offset="1" style="stop-opacity:1; stop-color:#136743"/>
  </linearGradient>
  <linearGradient id="id2" gradientUnits="userSpaceOnUse" x1="-257.61" y1="2269.1" x2="3210.79" y2="4194.18">
   <stop offset="0" style="stop-opacity:1; stop-color:#FF9900"/>
   <stop offset="0.521569" style="stop-opacity:1; stop-color:#B58E0E"/>
   <stop offset="1" style="stop-opacity:1; stop-color:#136743"/>
  </linearGradient>
 </defs>
 <g id="Layer_x0020_1">
  <metadata id="CorelCorpID_0Corel-Layer"/>
  <g>
  </g>
  <g style="clip-path:url(#id0)">
   <g>
    <g id="_1955250412368">
     <g>
      <path class="fil0" d="M3006.07 3705.8c-326.29,-458.54 -874.81,-1827.27 -1203.01,-2169.88 -428.42,-447.22 -1119.56,-504.88 -1730.71,-455.51 -166.5,13.45 -16.89,176.13 157.72,475.67 380.18,652.2 1232.61,2850.05 1590.81,3156.61 0,0 724.02,657.15 1175.54,344.45 377.73,-261.57 270.04,-985.41 9.65,-1351.34z"/>
      <path class="fil1" d="M3281.4 3889.54c149.49,-508.74 410.21,-2775.92 2447.83,-3072.76 -1173.05,494.66 -2029.49,1671.31 -2262.57,3340.8 -152.84,1094.84 -513.52,1324.7 -1424.93,880.64 238.01,330.95 877.3,764.41 1334.01,449.34 453.61,-312.96 627.6,-1292.67 1728.98,-2292.94 1078.56,-979.53 1233.49,-2339.35 1624.03,-3194.64 -399.08,122.33 -1792.56,433.31 -1977.96,520.81 -1560.29,736.37 -1460.77,2980.63 -1469.4,3368.74z"/>
     </g>
     <g>
      <path class="fil2" d="M6125.51 2197.64l293.82 0 155.11 1106.79 155.08 -1106.79 293.82 0 -299.53 1602.62 -299.16 0 -299.14 -1602.62zm1261.76 1602.62l-277.06 0 0 -1602.62 277.06 0 0 1602.62zm672.23 -1602.62l276.67 0 0 1602.62 -276.67 0 0 -1602.62zm-495.81 0l276.67 0 0 1602.62 -276.67 0 0 -1602.62zm131.5 684.69l543.79 0 0 256.58 -543.79 0 0 -256.58zm1126.48 -684.69l194.34 0 387.57 1602.62 -274.75 0 -209.99 -1050.36 -209.98 1050.36 -274.38 0 387.2 -1602.62zm-123.87 1097.77l442.08 0 0 255.81 -442.08 0 0 -255.81zm1157.77 -1097.77l194.34 0 387.57 1602.62 -274.75 0 -209.98 -1050.36 -209.98 1050.36 -274.39 0 387.2 -1602.62zm-123.87 1097.77l442.08 0 0 255.81 -442.08 0 0 -255.81zm826.19 -1097.77l217.62 0 381.86 1069.16 -30.12 42.91 0 -1112.06 252.27 0 0 1601.5 -219.87 0 -377.29 -1007.48 28.96 -44 0 1051.49 -253.42 0 0 -1601.5zm1976.36 0l276.67 0 0 1602.62 -276.67 0 0 -1602.62zm-495.82 0l276.67 0 0 1602.62 -276.67 0 0 -1602.62zm131.5 684.69l543.79 0 0 256.58 -543.79 0 0 -256.58zm1255.28 934.47c-87.25,0 -161.96,-15.03 -224.07,-44.77 -62.12,-29.71 -109.37,-72.58 -142.14,-128.66 -32.77,-56.43 -49.17,-124.13 -49.17,-203.51l0 -881.83c0,-79.38 16.41,-147.08 49.17,-203.89 32.77,-56.43 80.02,-99.33 142.14,-129.04 62.11,-29.33 136.82,-44 224.07,-44 86.88,0 161.58,14.68 223.69,44 62.12,29.71 109.76,72.61 142.53,129.04 32.4,56.81 48.78,124.51 48.78,203.89l0 881.83c0,79.38 -16.38,147.08 -48.78,203.51 -32.77,56.07 -80.41,98.95 -142.53,128.66 -62.11,29.74 -136.81,44.77 -223.69,44.77zm0 -273.48c28.18,0 52.57,-5.27 72.78,-16.57 20.58,-10.92 36.2,-26.69 46.5,-47.39 10.28,-20.31 15.62,-45.52 15.62,-74.87l0 -813.35c0,-28.59 -5.34,-53.05 -15.62,-73.74 -10.3,-20.7 -25.92,-36.47 -46.5,-47.38 -20.21,-10.92 -44.6,-16.57 -72.78,-16.57 -28.59,0 -52.59,5.66 -72.78,16.57 -20.19,10.91 -35.44,26.68 -45.71,47.38 -10.31,20.69 -15.62,45.15 -15.62,73.74l0 813.35c0,29.35 5.31,54.56 15.62,74.87 10.27,20.7 25.53,36.47 45.71,47.39 20.19,11.3 44.19,16.57 72.78,16.57zm954.24 273.48c-84.61,0 -157.78,-15.8 -218.76,-47.03 -60.98,-31.22 -107.47,-76.35 -139.85,-135.42 -32.41,-59.07 -48.78,-130.17 -48.78,-213.31l0 -85.78 275.89 -2.25 0 85.78c0,40.62 11.44,72.24 34.69,95.57 22.86,22.95 54.87,34.61 96.03,34.61 40.01,0 71.28,-11.3 93,-34.25 22.1,-22.56 33.16,-53.79 33.16,-93.67l0 -139.95c0,-29.33 -8.38,-54.91 -25.17,-76.36 -16.76,-21.82 -38.48,-40.62 -64.76,-56.43 -26.7,-15.8 -62.5,-34.61 -107.86,-56.81 -3.04,-1.51 -5.71,-2.99 -8.38,-4.51 -2.67,-1.13 -5.34,-2.64 -8.38,-4.15l-14.48 -6.76c-60.22,-30.1 -111.68,-61.33 -153.96,-94.06 -42.68,-32.74 -77.74,-76 -106.33,-129.79 -28.2,-53.43 -42.29,-119.64 -42.29,-198.25l0 -82.78c0,-81.25 16.01,-151.22 47.64,-209.9 31.63,-58.32 77.35,-103.08 137.57,-133.94 60.58,-30.84 133,-46.26 217.98,-46.26 82.32,0 153.58,15.42 213.02,46.26 59.83,30.86 105.18,76 136.43,135.07 31.27,59.07 46.89,130.17 46.89,213.31l0 90.28 -275.92 3.39 0 -91.42c0,-41.01 -10.66,-73.36 -31.63,-96.31 -21.33,-23.33 -51.06,-34.99 -88.79,-34.99 -40.4,0 -71.25,10.53 -93.36,31.61 -22.1,21.05 -32.77,49.64 -32.77,86.53l0 106.83c0,30.09 7.99,56.04 24,78.25 16.01,22.21 35.83,40.62 60.19,55.69 24.03,15.04 57.94,33.09 101.01,54.54 7.99,3.77 16.37,7.53 25.14,12.04 8.38,4.53 17.15,9.04 26.28,13.16 1.53,0.77 2.67,1.51 3.82,2.28 1.14,0.74 2.28,1.48 3.82,2.25 61.75,32.35 111.67,62.45 149.76,89.91 37.72,27.45 70.13,66.21 97.2,116.23 26.67,50.05 40.01,114.01 40.01,191.88l0 133.16c0,83.15 -15.62,154.25 -47.25,213.31 -31.66,59.07 -77.77,104.2 -137.96,135.42 -60.22,31.23 -132.62,47.03 -216.84,47.03zm708.06 -900.62l286.97 0c22.11,0 41.54,-4.89 57.92,-15.42 16.4,-10.17 28.96,-25.21 37.72,-45.16 9.16,-19.57 13.72,-43.26 13.72,-70.33l0 -188.5c0,-28.58 -4.56,-53.4 -12.95,-74.1 -8.77,-20.32 -20.96,-36.12 -37.36,-46.64 -16.38,-10.55 -36.2,-15.81 -59.06,-16.19l-286.97 0 0 -262.22 294.57 0c80.41,0 149.4,13.91 206.56,42.14 57.16,27.85 100.99,68.85 130.72,122.64 29.71,54.17 44.58,118.87 44.58,194.49l0 270.13c0,74.1 -15.23,137.68 -45.36,189.97 -30.1,52.67 -73.92,92.93 -131.08,120.39 -57.16,27.45 -125.76,41.39 -205.42,41.39l-294.57 0 0 -262.6zm-129.58 -718.55l276.67 0 0 1602.62 -276.67 0 0 -1602.62zm1231.33 1602.62l-277.06 0 0 -1602.62 277.06 0 0 1602.62zm421.84 -1467.94l276.67 0 0 1467.94 -276.67 0 0 -1467.94zm-267.9 -134.68l812.86 0 0 262.22 -812.86 0 0 -262.22zm1153.17 0l194.34 0 387.57 1602.62 -274.75 0 -209.98 -1050.36 -209.99 1050.36 -274.38 0 387.2 -1602.62zm-123.87 1097.77l442.08 0 0 255.81 -442.08 0 0 -255.81zm826.19 -1097.77l276.67 0 0 1602.62 -276.67 0 0 -1602.62zm113.96 1340.41l584.97 0 0 262.21 -584.97 0 0 -262.21z"/>
      <path class="fil3" d="M6425.38 5039.21c-38.2,-36.66 -69.9,-71.49 -94.73,-104.46 -24.86,-32.96 -43.85,-66.95 -56.78,-101.96 -13.16,-35.04 -19.61,-72.52 -19.61,-112.29 0,-76.84 20.65,-136.4 62.4,-178.43 41.51,-42.01 100.18,-63.03 175.92,-63.03 75.56,0 133.99,20.19 175.32,60.78 41.31,40.39 61.99,97.67 61.99,171.61l0 0 -88.09 0 0 0c0,-47.18 -12.92,-83.63 -39.03,-109.6 -26.07,-25.95 -62.82,-38.94 -110.19,-38.94 -47.59,0 -84.51,13.81 -110.82,41.42 -26.28,27.59 -39.44,66.34 -39.44,116.19 0,29.05 6.05,57.07 17.95,84.48 12.1,27.4 29.01,54.61 51.12,81.58 21.92,26.79 50.72,57.89 86.19,92.93l388.19 384.44 -121.66 0 -338.73 -324.71zm22.75 -97.23c-62.4,0 -110.82,15.65 -145.04,46.77 -34.23,31.3 -51.35,75.41 -51.35,132.47 0,56.46 18.16,100.13 54.05,131.02 36.12,30.91 86.85,46.56 151.94,46.56 59.26,0 109.58,-14.01 151.53,-42.03 41.72,-28.03 73.46,-69.21 95.38,-124.03 21.69,-54.79 32.53,-121.98 32.53,-201.68l82.02 0c0,98.66 -12.92,180.27 -38.81,245.15 -25.87,64.7 -67.41,113.73 -124.39,146.9 -57.19,33.17 -132.3,49.87 -225.6,49.87 -55.5,0 -102.88,-9.89 -142.32,-29.66 -39.23,-19.57 -69.31,-48.23 -89.75,-85.91 -20.65,-37.7 -30.88,-83.04 -30.88,-136.19 0,-71.49 20.03,-128.97 59.89,-172.05 39.85,-43.06 96.42,-67.98 169.25,-74.77l51.56 67.57zm956.68 -30.07l303.24 0c32.98,0 62.2,-7.23 87.26,-21.44 25.04,-14.42 44.45,-34.6 58.02,-60.78 13.57,-26.15 20.65,-56.24 21.06,-90.44l0 0c0,-34.19 -6.88,-64.49 -20.45,-90.65 -13.57,-26.17 -32.98,-46.36 -58.01,-60.58 -25.04,-14.22 -54.49,-21.41 -87.89,-21.41l-303.24 0 0 -80.97 298.44 0c51.35,0 96.44,10.5 135.47,31.51 38.81,20.82 69.07,50.48 90.37,89 21.49,38.32 32.12,82.81 32.12,133.09l0 0c0,50.28 -10.63,94.57 -32.12,133.09 -21.3,38.32 -51.56,68.01 -90.79,89.01 -39.05,20.8 -84.12,31.33 -135.05,31.33l-298.44 0 0 -80.76zm-54.46 -426.27l88.06 0 0 878.28 -88.06 0 0 -878.28zm339.35 479.83l81.39 -27.61 227.48 426.06 -105.19 0 -203.68 -398.45zm700.21 407.52c-58.67,0 -108.96,-10.92 -150.5,-32.97 -41.51,-21.85 -73.25,-53.76 -94.97,-96 -21.89,-42.03 -32.74,-92.52 -32.74,-151.64l0 -70.67c0,-62.02 10.43,-114.98 31.5,-158.86 20.86,-43.88 51.35,-77.25 91.41,-100.13 39.88,-22.87 88.09,-34.4 144.21,-34.4 53.01,0 98.32,11.32 135.89,33.78 37.33,22.47 65.93,55.43 85.75,98.69 19.85,43.26 29.66,95.39 29.66,155.96l0 71.89 -458.54 0 0 -78.5 376.72 0 0 -5.97c0,-62.01 -14.84,-110.01 -44.47,-144 -29.42,-34.02 -71.17,-50.9 -125.01,-50.9 -59.05,0 -104.77,17.93 -136.89,53.56 -32.15,35.86 -48.42,86.52 -48.42,152.25l0 79.53c0,62.83 17.1,111.47 51.53,145.87 34.25,34.4 82.46,51.51 144.86,51.51 29.21,0 58.43,-5.97 87.02,-18.14 28.81,-11.96 54.46,-29.05 76.8,-51.31l0 0 59.89 56.86 0 0c-30.88,29.66 -65.96,52.74 -105.18,69.03 -39.03,16.27 -78.67,24.52 -118.52,24.52zm629.85 0c-34.22,0 -67.61,-3.31 -99.76,-9.89 -32.15,-6.81 -62.2,-16.49 -90.17,-29.25 -27.97,-12.99 -52.59,-28.43 -74.29,-46.56l0 0 50.7 -60.99 0 0c34.67,22.87 70.55,40.81 107.71,53.35 37.16,12.79 72.21,19.16 105.81,19.16 60.74,0 107.66,-10.29 140.84,-30.88 33.19,-20.42 49.9,-49.46 49.9,-86.96 0,-27.38 -8.15,-47.8 -24.21,-61.6 -16.09,-13.6 -36.32,-22.85 -60.95,-27.58 -24.39,-4.97 -58.4,-8.87 -102.02,-12.17 -3.97,-0.41 -8.15,-0.62 -12.53,-0.82 -4.18,-0.2 -8.35,-0.62 -12.53,-1.02 -1.66,0 -3.32,0 -4.8,-0.2 -1.66,-0.23 -3.32,-0.44 -5.01,-0.44 -41.93,-3.9 -77.01,-9.89 -105.19,-17.9 -27.94,-8.25 -51.53,-23.28 -70.52,-45.33 -18.99,-22.26 -28.38,-54.18 -28.38,-96 0,-40.19 9.81,-74.38 29.63,-102.61 19.82,-28.22 48.63,-49.64 86.82,-64.68 37.99,-14.85 83.92,-22.26 137.34,-22.26 27.53,0 55.29,2.67 83.03,8.25 27.76,5.35 54.25,13.16 79.73,23.49 25.45,10.3 48.83,22.64 70.11,37.06l0 0 -50.7 59.76 0 0c-30.28,-17.32 -61.57,-30.72 -94.34,-40.19 -32.53,-9.48 -63,-14.22 -91.59,-14.22 -53.42,0 -94.75,9.91 -124.18,29.69 -29.22,19.77 -44.03,47.38 -44.03,83.22 0,24.95 7.94,43.7 24,55.84 15.85,12.37 35.89,20.39 60.09,24.52 24.21,3.92 57.6,7.22 99.97,9.68 1.69,0 3.35,0 5.22,0.2 1.89,0.2 3.55,0.41 5.21,0.41 1.27,0 2.51,0 3.77,0 1.03,0 2.3,0.2 3.55,0.64 44.42,2.25 82.19,7.81 113.51,16.27 31.08,8.45 57.19,25.13 78.47,50.07 21.28,24.92 31.73,60.96 31.73,107.94 0,40.8 -10.45,75.41 -31.73,103.84 -21.28,28.64 -52.18,50.48 -92.86,65.52 -40.92,15.03 -89.94,22.67 -147.33,22.67zm690.78 0c-58.67,0 -108.95,-10.92 -150.5,-32.97 -41.51,-21.85 -73.25,-53.76 -94.97,-96 -21.89,-42.03 -32.74,-92.52 -32.74,-151.64l0 -70.67c0,-62.02 10.43,-114.98 31.5,-158.86 20.86,-43.88 51.35,-77.25 91.41,-100.13 39.88,-22.87 88.09,-34.4 144.21,-34.4 53.01,0 98.32,11.32 135.89,33.78 37.33,22.47 65.93,55.43 85.75,98.69 19.85,43.26 29.66,95.39 29.66,155.96l0 71.89 -458.54 0 0 -78.5 376.72 0 0 -5.97c0,-62.01 -14.84,-110.01 -44.47,-144 -29.42,-34.02 -71.17,-50.9 -125.01,-50.9 -59.05,0 -104.77,17.93 -136.89,53.56 -32.15,35.86 -48.42,86.52 -48.42,152.25l0 79.53c0,62.83 17.1,111.47 51.53,145.87 34.25,34.4 82.46,51.51 144.86,51.51 29.21,0 58.43,-5.97 87.02,-18.14 28.81,-11.96 54.46,-29.05 76.8,-51.31l0 0 59.89 56.86 0 0c-30.88,29.66 -65.96,52.74 -105.18,69.03 -39.03,16.27 -78.67,24.52 -118.52,24.52zm800.35 -406.3c0,-50.68 -13.75,-90.03 -41.31,-117.85 -27.56,-28.02 -66.58,-42.03 -117.1,-42.03 -30.05,0 -59.68,4.74 -88.68,14.42 -28.81,9.68 -54.46,23.29 -77.01,41.01l-64.07 -43.47c24,-28.44 55.71,-50.69 94.94,-66.54 39.46,-15.88 83.08,-23.9 131.29,-23.9 52.6,0 97.46,9.07 135.03,27.41 37.57,18.31 66.17,44.9 85.57,79.71 19.61,34.84 29.42,76.87 29.42,125.89l0 402.58 -88.09 0 0 -397.23zm-185.94 406.3c-74.1,0 -131.5,-16.91 -172.39,-50.69 -40.7,-33.78 -61.15,-81.58 -61.15,-142.98 0,-59.34 18.78,-105.07 55.94,-137.41 37.34,-32.35 89.93,-48.62 158.2,-48.62l210.79 0 8.54 80.97 -218.71 0c-40.92,0 -72.42,9.07 -94.55,27.41 -22.13,18.32 -33.39,44.08 -33.39,77.66 0,35.22 13.98,62.83 41.95,82.2 27.97,19.59 67.41,29.48 118.34,29.48 54.67,0 97.04,-5.59 127.09,-16.5 30.25,-10.71 45.28,-26.15 45.28,-45.75l12.95 82.02c-12.74,12.99 -29.01,24.1 -48.63,33.58 -19.82,9.48 -42.37,16.47 -68.03,21.41 -25.45,4.74 -52.81,7.23 -82.23,7.23zm463.52 -635.59l88.09 0 0 626.52 -88.09 0 0 -626.52zm373.58 112.26c-13.13,-13.37 -29.42,-23.26 -49.25,-30.27 -19.82,-6.79 -42.79,-10.1 -68.86,-10.1 -53.01,0 -94.14,13.81 -123.35,41.83 -29.42,28.02 -44.03,66.75 -44.03,116.18l-12.95 -120.72c23.17,-37.3 53.63,-66.34 91.41,-87.17 37.78,-20.8 79.11,-31.1 123.76,-31.1 29.01,0 55.29,4.12 78.67,12.35 23.38,8.24 43.82,20.41 61.36,36.47l-56.77 72.51zm404.69 523.32c-61.16,0 -112.09,-10.1 -152.77,-30.28 -40.71,-20 -71.17,-50.28 -91.41,-90.47 -20.24,-40.17 -30.25,-90.65 -30.25,-151.43l0 -103.2c0,-59.97 10.22,-110.04 30.46,-149.79 20.44,-39.75 50.93,-69.64 91.41,-89.62 40.68,-19.98 91.4,-29.87 152.56,-29.87 34.64,0 66.37,3.71 94.76,11.11 28.57,7.43 54.04,18.55 76.57,33.17 22.34,14.83 41.95,33.38 58.67,55.84l0 0 -65.54 57.48 0 0c-21.49,-25.75 -45.93,-45.11 -73.04,-57.68 -27.14,-12.79 -56.98,-18.96 -89.54,-18.96 -63.23,0 -110.4,15.45 -141.48,46.77 -31.32,31.1 -46.76,78.28 -46.76,141.54l0 103.2c0,63.88 15.65,111.88 46.96,143.61 31.5,31.71 78.47,47.6 141.28,47.6 34.64,0 66.17,-5.97 94.55,-18.14 28.18,-11.96 53.84,-30.28 76.6,-54.82l0 0 56.98 55.43 0 0c-16.71,22.26 -36.33,40.6 -58.67,55.02 -22.53,14.41 -48,25.33 -76.57,32.55 -28.39,7.2 -60.12,10.92 -94.76,10.92zm367.51 -886.73l88.09 0 0 877.66 -88.09 0 0 -877.66zm421.79 497.96c0,-55.43 -14.82,-98.49 -44.24,-129.17 -29.63,-30.51 -71.17,-45.75 -125.01,-45.75 -52.18,0 -92.66,13.6 -121.46,40.57 -28.8,27.2 -42.99,65.72 -42.99,115.59l-12.95 -120.74c22.55,-40.99 52.17,-70.67 89.33,-88.98 37.13,-18.34 80.12,-27.41 128.98,-27.41 68.86,0 122.08,22.26 159.86,66.75 37.78,44.49 56.56,107.35 56.56,188.52l0 380.32 -88.09 0 0 -379.7zm917.24 388.77c-61.57,0 -115.62,-13.4 -162.37,-40.4 -46.76,-26.97 -82.88,-65.29 -108.51,-114.75 -25.67,-49.43 -38.61,-106.91 -38.61,-172.02l0 -240.85c0,-65.11 12.95,-122.59 38.61,-172.03 25.63,-49.46 61.75,-87.78 108.51,-114.98 46.75,-27.18 100.8,-40.78 162.37,-40.78 50.91,0 97.87,10.3 140.66,30.89 42.78,20.42 78.47,49.46 107.26,87.17 28.8,37.7 48.21,81.17 58.43,130.6l0 0 -88.06 0 0 0c-9.81,-32.96 -25.87,-62.01 -48,-87.34 -22.34,-25.56 -48.21,-45.13 -78.05,-59.35 -29.63,-14.01 -60.53,-21.01 -92.24,-21.01 -44.06,0 -82.88,10.3 -116.27,30.69 -33.39,20.62 -59.26,49.46 -77.63,86.75 -18.38,37.06 -27.56,80.36 -27.56,129.38l0 240.85c0,49.03 9.18,92.28 27.56,129.37 18.37,37.3 44.24,66.14 77.63,86.32 33.39,20.41 72.21,30.51 116.27,30.51 31.71,0 62.61,-6.61 92.24,-19.78 29.84,-13.4 55.71,-32.76 78.05,-58.12 22.13,-25.33 38.19,-55.2 48,-89.83l0 0 88.06 0 0 0c-10.22,49.46 -29.84,93.13 -58.85,130.63 -28.8,37.7 -64.68,66.75 -107.47,87.34 -42.78,20.42 -89.54,30.72 -140.03,30.72zm731.28 0c-58.67,0 -108.95,-10.92 -150.49,-32.97 -41.51,-21.85 -73.25,-53.76 -94.97,-96 -21.89,-42.03 -32.75,-92.52 -32.75,-151.64l0 -70.67c0,-62.02 10.43,-114.98 31.5,-158.86 20.86,-43.88 51.35,-77.25 91.41,-100.13 39.88,-22.87 88.09,-34.4 144.21,-34.4 53.01,0 98.32,11.32 135.89,33.78 37.33,22.47 65.93,55.43 85.75,98.69 19.85,43.26 29.66,95.39 29.66,155.96l0 71.89 -458.53 0 0 -78.5 376.72 0 0 -5.97c0,-62.01 -14.84,-110.01 -44.47,-144 -29.42,-34.02 -71.17,-50.9 -125.01,-50.9 -59.05,0 -104.77,17.93 -136.89,53.56 -32.15,35.86 -48.42,86.52 -48.42,152.25l0 79.53c0,62.83 17.1,111.47 51.53,145.87 34.25,34.4 82.46,51.51 144.86,51.51 29.22,0 58.43,-5.97 87.03,-18.14 28.8,-11.96 54.46,-29.05 76.8,-51.31l0 0 59.89 56.86 0 0c-30.88,29.66 -65.96,52.74 -105.18,69.03 -39.03,16.27 -78.68,24.52 -118.53,24.52zm411.54 -635.59l88.09 0 0 626.52 -88.09 0 0 -626.52zm421.79 246.81c0,-55.43 -14.82,-98.49 -44.24,-129.17 -29.63,-30.51 -71.17,-45.75 -125.01,-45.75 -52.18,0 -92.66,13.6 -121.46,40.57 -28.8,27.2 -42.99,65.72 -42.99,115.59l-12.95 -120.74c22.55,-40.99 52.17,-70.67 89.33,-88.98 37.13,-18.34 80.12,-27.41 128.98,-27.41 68.86,0 122.08,22.26 159.86,66.75 37.78,44.49 56.56,107.35 56.56,188.52l0 380.32 -88.09 0 0 -379.7zm442.88 382.8c-51.35,0 -89.13,-14.01 -112.92,-42.03 -23.79,-28.02 -35.67,-69.23 -35.67,-124.03l0 -645.91 88.06 0 0 647.14c0,27 6.05,47.6 18.38,62.22 12.12,14.42 30.25,21.64 54.25,21.64l59.91 0 0 80.97 -72 0zm-214.13 -629.61l286.14 0 0 74.79 -286.14 0 0 -74.79zm717.32 635.59c-58.67,0 -108.95,-10.92 -150.49,-32.97 -41.52,-21.85 -73.25,-53.76 -94.97,-96 -21.9,-42.03 -32.75,-92.52 -32.75,-151.64l0 -70.67c0,-62.02 10.43,-114.98 31.5,-158.86 20.86,-43.88 51.35,-77.25 91.41,-100.13 39.88,-22.87 88.09,-34.4 144.22,-34.4 53,0 98.31,11.32 135.88,33.78 37.34,22.47 65.93,55.43 85.76,98.69 19.85,43.26 29.66,95.39 29.66,155.96l0 71.89 -458.53 0 0 -78.5 376.72 0 0 -5.97c0,-62.01 -14.84,-110.01 -44.48,-144 -29.42,-34.02 -71.17,-50.9 -125.01,-50.9 -59.06,0 -104.78,17.93 -136.9,53.56 -32.15,35.86 -48.42,86.52 -48.42,152.25l0 79.53c0,62.83 17.1,111.47 51.53,145.87 34.25,34.4 82.46,51.51 144.86,51.51 29.21,0 58.43,-5.97 87.03,-18.14 28.8,-11.96 54.46,-29.05 76.8,-51.31l0 0 59.89 56.86 0 0c-30.88,29.66 -65.96,52.74 -105.19,69.03 -39.03,16.27 -78.67,24.52 -118.52,24.52zm411.54 -635.59l88.09 0 0 626.52 -88.09 0 0 -626.52zm373.58 112.26c-13.13,-13.37 -29.42,-23.26 -49.25,-30.27 -19.82,-6.79 -42.78,-10.1 -68.86,-10.1 -53,0 -94.13,13.81 -123.35,41.83 -29.42,28.02 -44.03,66.75 -44.03,116.18l-12.95 -120.72c23.17,-37.3 53.64,-66.34 91.41,-87.17 37.78,-20.8 79.11,-31.1 123.76,-31.1 29.01,0 55.29,4.12 78.68,12.35 23.38,8.24 43.82,20.41 61.36,36.47l-56.78 72.51z"/>
      <polygon class="fil4" points="6125.49,4096.79 18898.57,4096.79 18898.57,4148.02 6125.49,4148.02 "/>
     </g>
    </g>
   </g>
  </g>
  <polygon class="fil5" points="-0,0 18898.53,0 18898.53,5596.87 -0,5596.87 "/>
 </g>
</svg>
